<?xml version="1.0" standalone="no"?>
<!DOCTYPE svg PUBLIC "-//W3C//DTD SVG 20010904//EN"
 "http://www.w3.org/TR/2001/REC-SVG-20010904/DTD/svg10.dtd">
<svg version="1.0" xmlns="http://www.w3.org/2000/svg"
 width="400.000000pt" height="400.000000pt" viewBox="0 0 400.000000 400.000000"
 preserveAspectRatio="xMidYMid meet">
<metadata>
Created by potrace 1.11, written by Peter Selinger 2001-2013
</metadata>
<g transform="translate(0.000000,400.000000) scale(0.100000,-0.100000)"
fill="#000000" stroke="none">
<path d="M300 3908 c-1 -44 304 -3434 309 -3441 8 -8 1367 -387 1389 -387 22
0 1386 380 1393 388 4 5 311 3415 309 3445 0 4 -765 7 -1700 7 -1353 0 -1700
-3 -1700 -12z m2787 -710 c-3 -18 -14 -114 -23 -214 l-17 -180 -516 -222 -516
-221 497 -1 498 0 -6 -57 c-3 -32 -29 -331 -58 -666 -29 -334 -55 -609 -57
-611 -2 -1 -201 -60 -443 -131 l-438 -127 -430 126 c-236 70 -439 131 -452
135 -21 9 -23 18 -45 288 -12 153 -25 302 -28 331 l-6 52 222 0 c188 0 221 -2
221 -15 0 -27 21 -269 26 -302 l5 -32 235 -57 236 -57 241 67 c133 38 245 71
249 74 7 7 42 542 35 548 -2 2 -340 7 -750 11 -411 3 -747 7 -748 7 -2 1 -36
411 -35 412 0 0 183 76 406 169 656 272 646 268 624 276 -10 4 -256 8 -546 8
l-528 1 -1 28 c0 15 -10 109 -23 210 l-22 182 1099 0 1099 0 -5 -32z"/>
</g>
</svg>
